Coordinates
version=1
nRows=12
nColumns=33
inDegrees=yes

Units are S.I. units (second, meters, Newtons, ...)
Angles are in degrees.

endheader
time	ground_thorax_rot_x	ground_thorax_rot_y	ground_thorax_rot_z	ground_thorax_tx	ground_thorax_ty	ground_thorax_tz	clav_prot_r	clav_elev_r	scapula_abduction_r	scapula_elevation_r	scapula_upward_rot_r	scapula_winging_r	shoulder_elv_r	plane_of_elev_r	axial_rot_r	elbow_flexion_r	pro_sup_r	wrist_flex_r	wrist_dev_r	clav_prot_l	clav_elev_l	scapula_abduction_l	scapula_elevation_l	scapula_upward_rot_l	scapula_winging_l	shoulder_elv_l	plane_of_elev_l	axial_rot_l	elbow_flexion_l	pro_sup_l	wrist_flex_l	wrist_dev_l
     10.28000000	    -40.05080788	    -13.07300680	      7.93812509	   -109.46122897	    790.76428624	      4.49025309	      1.99983197	    -45.00000000	     45.00000000	    -45.00000000	      5.68046777	  -2990.94406018	   -656.07982598	     19.57443823	   -179.99999979	   2164.90333899	    -82.35006687	     16.08056191	     10.50732511	     18.24678964	     39.63119657	    -41.63691182	    -43.93161259	    -44.42857406	   2957.13839533	  -3699.49269339	    135.60207015	   -179.99999979	    366.06601711	     28.84614629	     10.45104734	    -20.17931539
     10.29000000	    -40.23103364	    -13.17757944	      7.89861828	   -114.56347671	    790.95067843	      3.99207446	      1.74333914	    -45.00000000	     44.99701649	    -45.00000000	      5.75997126	  -2991.41427642	   -655.74691429	     19.48618690	   -179.99999979	   2165.05196083	    -81.30667930	     15.84925579	     10.54540931	     18.39435126	     39.49087777	    -41.31854480	    -44.35153736	    -45.00000000	   2956.84820881	  -3699.46025072	    135.82672612	   -179.99999979	    366.21327120	     29.30682736	     10.34799729	    -20.25852480
     10.30000000	    -40.33886565	    -12.58611802	      7.08088478	   -119.74526831	    791.23006328	      3.46227829	      2.00848440	    -45.00000000	     45.00000000	    -45.00000000	      7.14321397	  -2991.73056437	   -655.11236870	     19.33993866	   -179.99999979	   2165.21334524	    -80.61827584	     16.10988186	     10.54242596	     17.62487342	     39.51224683	    -41.32173571	    -44.14196356	    -45.00000000	   2957.64376121	  -3699.44617965	    135.11801650	   -179.99999979	    366.10268744	     30.09053362	     10.41440583	    -20.25035679
     10.31000000	    -40.47775823	    -14.96801134	      9.92832421	   -124.99717408	    791.60912983	      2.90218421	      3.35754449	    -45.00000000	     40.54588914	    -45.00000000	     -4.40708641	  -2988.49414081	   -656.21669064	     19.84419059	   -179.99999979	   2164.44790461	    -77.91693284	     16.53582364	     10.18958592	     17.49133853	     39.71368951	    -39.23176749	    -45.00000000	    -45.00000000	   2956.73139389	  -3699.77699161	    136.28365217	   -179.99999979	    365.78667025	     29.21735084	     11.23944806	    -20.52646673
     10.32000000	    -40.59537077	    -14.76943131	      9.61465143	   -130.29588676	    792.09241083	      2.31454240	      2.82866952	    -45.00000000	     40.88498738	    -45.00000000	     -3.48265031	  -2989.30754741	   -655.82868143	     19.77194895	   -179.99999979	   2164.64743750	    -78.17258118	     16.34022084	     10.32600411	     17.63907330	     39.47214229	    -38.98016583	    -45.00000000	    -45.00000000	   2956.71660605	  -3699.77579977	    136.56788454	   -179.99999979	    365.92690228	     30.58083825	     10.96752771	    -20.63666476
     10.33000000	    -40.69307649	    -15.39312429	     10.45609376	   -135.62250270	    792.68799965	      1.70458183	      3.47978643	    -45.00000000	     38.30219077	    -45.00000000	     -9.08145877	  -2987.36478261	   -655.80484872	     20.09339961	   -179.99999979	   2164.44878680	    -77.69836962	     16.68545182	     10.20030146	     17.21177538	     39.41808570	    -38.33399248	    -45.00000000	    -45.00000000	   2957.10414474	  -3699.82010937	    136.74822056	   -179.99999979	    365.82847930	     31.28514862	     11.35629005	    -20.85914230
     10.34000000	    -40.76310796	    -15.05454181	      9.94704158	   -140.95670761	    793.40121638	      1.07724172	      2.91684273	    -45.00000000	     38.83266137	    -45.00000000	     -7.91551101	  -2988.09530169	   -655.39227707	     19.96243103	   -179.99999979	   2164.60302112	    -77.75600351	     16.53013313	     10.31434579	     17.20180534	     39.25754424	    -38.12400050	    -45.00000000	    -45.00000000	   2957.24853391	  -3699.86807182	    136.76648019	   -179.99999979	    365.88987919	     32.29655189	     11.19831246	    -20.90643965
     10.35000000	    -40.90006445	    -15.50052254	     10.55241328	   -146.28532623	    794.24340876	      0.43777913	      3.73745060	    -45.00000000	     36.94489297	    -45.00000000	    -12.13497465	  -2986.92574343	   -655.33857413	     20.32031383	   -179.99999979	   2164.40167932	    -77.31233915	     16.83779751	     10.20919996	     16.94108837	     39.30198056	    -37.50919532	    -45.00000000	    -45.00000000	   2957.48146049	  -3699.81604468	    137.07162814	   -179.99999979	    365.83087954	     32.93873420	     11.57224568	    -21.16974043
     10.36000000	    -40.97855229	    -15.20755724	     10.22028959	   -151.58295961	    795.21684770	     -0.20741131	      3.52546205	    -45.00000000	     37.27718259	    -45.00000000	    -11.36207363	  -2987.67925017	   -655.04807246	     20.29424504	   -179.99999979	   2164.51514656	    -77.16137206	     16.76186876	     10.29772639	     17.05939808	     38.90180646	    -37.29641081	    -45.00000000	    -45.00000000	   2957.51904121	  -3699.81089809	    137.32200594	   -179.99999979	    365.93896815	     33.72423581	     11.46694940	    -21.24007291
     10.37000000	    -41.09646230	    -15.34455400	     10.44510725	   -156.83021080	    796.32998521	     -0.85258422	      4.06808585	    -45.00000000	     36.19630383	    -45.00000000	    -13.94305500	  -2987.09171593	   -654.90306331	     20.53808643	   -179.99999979	   2164.45563314	    -76.71996212	     16.99941005	     10.24321199	     16.82340534	     38.96041245	    -36.84739404	    -45.00000000	    -45.00000000	   2957.77011345	  -3699.78981403	    137.50619518	   -179.99999979	    365.97415180	     34.38917706	     11.75740665	    -21.51776026
     10.38000000	    -41.16304955	    -15.06731494	     10.06511325	   -162.00592606	    797.58399415	     -1.49225826	      3.50961462	    -45.00000000	     36.40774072	    -45.00000000	    -13.39604216	  -2987.49015129	   -654.58075948	     20.43053145	   -179.99999979	   2164.54374459	    -76.59111081	     16.94237834	     10.30973730	     16.77197511	     38.72709546	    -36.54147580	    -45.00000000	    -45.00000000	   2957.94540816	  -3699.81765862	    137.51418726	   -179.99999979	    365.99157749	     35.15592252	     11.65279567	    -21.55340112
     10.39000000	    -41.25642011	    -14.95212219	     10.00070968	   -167.09233631	    798.98293905	     -2.12202077	      3.78146487	    -45.00000000	     35.96759593	    -45.00000000	    -14.48816978	  -2987.47968730	   -654.37032921	     20.60971755	   -179.99999979	   2164.51595372	    -76.35712271	     17.08680339	     10.28760150	     16.62674720	     38.66359271	    -36.26726476	    -45.00000000	    -45.00000000	   2958.14226026	  -3699.77941302	    137.71838343	   -179.99999979	    366.04940527	     35.87546482	     11.81038766	    -21.78533159
